<svg version="1.0" xmlns="http://www.w3.org/2000/svg"
 width="50.000000pt" height="50.000000pt" viewBox="0 0 50.000000 50.000000"
 preserveAspectRatio="xMidYMid meet">

<g transform="translate(0.000000,50.000000) scale(0.100000,-0.100000)"
fill="#000000" stroke="none">
<path d="M191 454 c-15 -19 -21 -41 -21 -78 0 -35 -7 -62 -22 -86 -11 -19 -26
-55 -33 -80 -8 -31 -19 -49 -36 -57 -19 -10 -24 -21 -26 -53 -1 -45 3 -49 80
-70 42 -11 50 -11 65 4 24 20 95 21 112 1 18 -22 37 -19 91 17 51 32 60 51 34
66 -9 4 -19 31 -24 60 -5 31 -23 76 -44 110 -20 32 -39 78 -43 102 -14 84 -89
120 -133 64z m93 -10 c9 -8 16 -23 16 -32 -1 -15 -2 -15 -11 1 -6 10 -20 17
-32 16 -50 -3 -60 0 -47 16 16 20 54 19 74 -1z m-56 -54 c3 -8 0 -10 -8 -5 -7
4 -16 2 -21 -6 -7 -11 -9 -11 -9 2 0 30 29 38 38 9z m50 -6 c2 -15 1 -16 -6
-5 -6 7 -15 10 -21 7 -12 -8 -15 6 -4 18 11 11 28 1 31 -20z m72 -104 c17 -26
34 -64 37 -84 5 -31 3 -34 -14 -30 -13 4 -23 21 -31 51 -7 25 -22 58 -32 73
-21 30 -24 47 -13 76 6 15 8 14 14 -9 4 -16 22 -50 39 -77z m-91 71 c11 -7 9
-11 -8 -21 -17 -9 -26 -9 -37 1 -25 21 15 39 45 20z m38 -78 c26 -48 38 -99
24 -108 -6 -3 -11 -18 -11 -32 0 -15 -7 -35 -17 -45 -20 -22 -66 -24 -83 -3
-9 10 -9 15 -1 15 22 0 11 29 -19 50 -18 13 -30 30 -30 43 0 35 43 100 70 108
42 12 46 10 67 -28z m-134 -18 c-9 -19 -18 -33 -21 -31 -4 5 26 66 33 66 3 0
-3 -16 -12 -35z m-26 -67 c-3 -8 -6 -5 -6 6 -1 11 2 17 5 13 3 -3 4 -12 1 -19z
m44 -105 c20 -37 1 -47 -56 -30 -43 12 -48 17 -50 45 -2 20 2 32 10 32 7 0 19
7 26 16 12 15 15 13 35 -12 12 -15 28 -38 35 -51z m189 63 c0 -3 -4 -8 -10
-11 -5 -3 -10 -1 -10 4 0 6 5 11 10 11 6 0 10 -2 10 -4z m51 -46 c7 0 -7 -14
-29 -30 -41 -29 -72 -39 -72 -21 0 5 3 22 6 39 4 22 11 28 23 25 10 -2 24 3
31 12 13 15 15 15 22 -4 4 -12 13 -21 19 -21z m-226 20 c3 -5 1 -10 -4 -10 -6
0 -11 5 -11 10 0 6 2 10 4 10 3 0 8 -4 11 -10z"/>
</g>
<style>
        path { fill: #000; }
        @media (prefers-color-scheme: dark) {
            path { fill: #FFF; }
        }
    </style>
</svg>
