<svg version="1.0" xmlns="http://www.w3.org/2000/svg"
 width="50px" height="50px" viewBox="0 0 67.000000 67.000000"
 preserveAspectRatio="xMidYMid meet">

<g transform="translate(0.000000,67.000000) scale(0.100000,-0.100000)"
fill="#000000" stroke="none">
<path d="M131 617 c-6 -8 -12 -79 -13 -183 l-3 -169 -25 -3 c-40 -5 -50 -29
-50 -113 0 -57 4 -82 16 -93 23 -24 535 -24 558 0 12 11 16 36 16 93 0 84 -10
108 -50 113 l-25 3 -3 130 -3 130 -51 53 -52 52 -152 0 c-113 0 -154 -3 -163
-13z m281 -69 l3 -53 53 -3 52 -3 0 -115 0 -114 -185 0 -185 0 0 170 0 170
129 0 130 0 3 -52z m68 -3 l23 -25 -31 0 c-27 0 -32 4 -32 25 0 14 4 25 8 25
5 0 19 -11 32 -25z m115 -395 l0 -75 -260 0 -260 0 -3 64 c-2 35 -1 70 2 78 5
11 52 13 263 11 l258 -3 0 -75z"/>
<path d="M200 445 c0 -12 16 -15 80 -15 64 0 80 3 80 15 0 12 -16 15 -80 15
-64 0 -80 -3 -80 -15z"/>
<path d="M203 388 c5 -18 259 -18 265 0 3 9 -28 12 -133 12 -105 0 -136 -3
-132 -12z"/>
<path d="M205 339 c-15 -23 14 -30 111 -27 80 2 99 6 99 18 0 12 -19 16 -102
18 -67 2 -104 -1 -108 -9z"/>
<path d="M122 153 c3 -48 22 -69 31 -33 7 26 33 26 40 0 10 -39 27 -20 27 30
0 38 -4 50 -15 50 -8 0 -15 -7 -15 -15 0 -8 -9 -15 -20 -15 -11 0 -20 7 -20
15 0 8 -7 15 -16 15 -12 0 -14 -10 -12 -47z"/>
<path d="M235 189 c-4 -6 2 -13 14 -16 16 -4 21 -13 21 -40 0 -44 24 -40 28 5
2 20 9 32 18 32 8 0 14 7 14 15 0 11 -12 15 -44 15 -25 0 -48 -5 -51 -11z"/>
<path d="M352 153 c3 -48 28 -75 28 -30 0 30 32 32 40 3 3 -11 11 -21 18 -24
8 -2 12 12 12 47 0 52 -12 65 -38 39 -9 -9 -15 -9 -24 0 -26 26 -39 14 -36
-35z"/>
<path d="M480 151 c0 -50 1 -51 29 -51 36 0 51 19 23 27 -14 3 -22 15 -24 36
-5 54 -28 45 -28 -12z"/>

</g>
<style>
        path { fill: #000; }
        @media (prefers-color-scheme: dark) {
            path { fill: #FFF; }
        }
    </style>
</svg>
